<?xml version="1.0" standalone="no"?>
<!DOCTYPE svg PUBLIC "-//W3C//DTD SVG 20010904//EN"
 "http://www.w3.org/TR/2001/REC-SVG-20010904/DTD/svg10.dtd">
<svg version="1.0" xmlns="http://www.w3.org/2000/svg"
 width="1024.000000pt" height="1024.000000pt" viewBox="0 0 1024.000000 1024.000000"
 preserveAspectRatio="xMidYMid meet">

<g transform="translate(0.000000,1024.000000) scale(0.100000,-0.100000)"
fill="##FF7D1B" stroke="none">
<path d="M0 5120 l0 -5120 5120 0 5120 0 0 5120 0 5120 -5120 0 -5120 0 0
-5120z m5403 3234 c161 -86 298 -162 306 -169 12 -11 -3 -70 -94 -387 -59
-205 -116 -404 -127 -443 -11 -38 -23 -74 -28 -78 -4 -5 -84 30 -178 77 l-172
86 -171 -85 c-94 -47 -172 -85 -174 -85 -8 0 -79 233 -199 650 -35 124 -67
233 -71 242 -4 11 1 21 17 30 71 41 584 316 591 317 4 1 139 -69 300 -155z
m-1125 -254 c12 -33 17 -62 11 -65 -5 -3 -35 -15 -66 -26 -32 -10 -111 -41
-175 -67 l-118 -47 0 -40 c0 -119 -110 -187 -220 -135 l-48 22 -93 -61 -93
-61 -49 48 -49 49 69 45 c37 25 92 58 122 75 42 23 56 38 66 66 17 49 31 64
79 89 30 16 50 19 86 14 40 -5 58 -1 113 25 60 28 323 128 339 129 3 0 15 -27
26 -60z m1822 10 c123 -44 373 -150 387 -164 6 -6 -13 -42 -44 -83 l-24 -31
-92 43 c-87 40 -154 66 -342 134 -54 19 -79 33 -77 42 2 8 9 35 15 62 7 26 17
47 24 47 7 0 76 -23 153 -50z m1184 1 c38 -38 65 -55 125 -77 42 -15 123 -49
180 -76 84 -39 114 -48 153 -47 69 3 92 -20 85 -85 -4 -43 2 -62 43 -150 26
-56 62 -141 81 -190 27 -72 46 -102 93 -153 l59 -64 -60 -59 c-33 -33 -67 -74
-75 -92 -9 -18 -45 -100 -81 -183 -59 -135 -65 -155 -60 -198 8 -70 -12 -90
-86 -82 -53 6 -64 3 -191 -53 -74 -32 -151 -64 -170 -71 -20 -6 -60 -36 -90
-66 l-54 -55 -56 54 c-47 46 -73 61 -180 104 -69 28 -152 61 -184 75 -46 19
-67 23 -94 16 -65 -14 -100 24 -82 90 9 36 6 46 -48 162 -32 68 -69 149 -81
180 -15 39 -41 75 -83 117 l-61 61 54 59 c43 47 64 83 98 169 24 59 63 147 87
195 39 77 42 90 33 118 -8 23 -8 38 1 61 17 39 39 51 80 39 28 -8 43 -4 109
29 42 21 130 60 196 86 101 40 126 55 158 92 21 23 42 43 46 43 4 0 29 -22 55
-49z m-2919 -287 c10 -37 14 -69 9 -74 -5 -4 -54 -25 -109 -45 -166 -62 -442
-207 -544 -287 l-25 -19 -53 53 c-29 29 -53 55 -53 59 0 18 183 134 331 211
117 61 373 164 415 167 6 1 19 -29 29 -65z m1714 -9 c104 -40 221 -92 238
-107 14 -12 1 -42 -40 -92 l-24 -29 -109 45 c-60 25 -156 61 -214 79 -58 18
-107 34 -108 35 -3 2 19 89 33 131 4 13 89 -10 224 -62z m-3295 -96 c75 -46
149 -93 163 -105 l26 -20 -34 -65 c-33 -63 -35 -64 -69 -59 -19 3 -82 5 -140
5 -99 0 -110 -2 -172 -33 -78 -38 -144 -106 -191 -197 -30 -56 -32 -67 -32
-160 0 -93 2 -105 33 -167 79 -161 255 -257 420 -228 79 13 151 45 206 89 l40
32 37 -43 c21 -24 37 -47 36 -51 -6 -23 -194 -267 -205 -267 -7 0 -57 23 -112
50 -56 28 -162 79 -238 114 -148 69 -541 262 -549 270 -3 3 17 38 45 78 27 40
165 248 307 461 201 305 261 388 275 384 9 -2 79 -42 154 -88z m595 -259 c60
-52 110 -98 110 -103 1 -4 -25 -40 -57 -80 -32 -39 -91 -119 -132 -177 -40
-58 -76 -108 -80 -113 -6 -7 -120 80 -219 170 l-55 49 84 130 c45 71 103 162
128 201 l45 73 33 -28 c18 -15 83 -70 143 -122z m1066 78 c9 -35 16 -67 15
-73 -2 -5 -37 -24 -79 -41 -72 -29 -76 -32 -79 -65 -6 -64 -56 -89 -103 -50
-22 18 -23 18 -83 -17 -34 -20 -91 -55 -127 -78 l-67 -42 -60 58 -60 59 31 24
c49 37 134 89 230 141 91 49 320 145 348 146 12 0 22 -18 34 -62z m1475 16
c117 -40 250 -100 250 -113 0 -18 -93 -132 -104 -127 -139 61 -204 88 -264
107 -54 17 -71 27 -67 38 3 8 13 43 21 77 19 74 7 73 164 18z m-3121 -225 c17
-6 31 -12 31 -14 0 -2 -11 -27 -25 -57 -30 -64 -34 -151 -9 -187 9 -12 37 -42
62 -64 80 -74 76 -66 49 -101 -97 -126 -319 -95 -402 56 -38 69 -41 169 -7
234 26 50 99 117 144 131 45 15 118 15 157 2z m1733 -79 c25 -82 25 -82 -44
-109 -91 -35 -223 -99 -297 -144 l-64 -39 -48 54 c-27 29 -48 56 -49 60 0 9
207 132 274 163 124 56 172 74 191 72 14 -1 24 -17 37 -57z m1276 16 c115 -45
182 -76 182 -83 0 -10 -60 -100 -74 -113 -11 -8 -28 -4 -72 15 -33 15 -88 38
-124 52 -36 14 -66 27 -68 28 -2 2 5 32 15 69 13 51 21 66 35 66 11 0 58 -15
106 -34z m-2150 -104 c258 -229 497 -432 509 -432 6 0 41 20 79 45 167 110
386 198 570 230 135 24 404 24 539 1 55 -9 136 -28 180 -42 117 -38 307 -134
415 -211 176 -126 379 -350 474 -524 l36 -66 -141 -77 -141 -76 -672 0 c-731
0 -725 0 -844 -58 -119 -57 -220 -195 -257 -349 -13 -55 -16 -98 -12 -175 6
-120 30 -199 86 -285 71 -108 143 -165 268 -210 63 -23 70 -23 473 -23 l410 0
0 100 0 100 -500 0 -500 0 0 125 0 125 710 0 710 0 0 -309 0 -309 -184 -4
-184 -3 -95 -48 -95 -48 -393 3 c-382 3 -395 4 -424 24 -16 12 -68 40 -115 63
-173 84 -276 184 -355 346 -67 138 -90 234 -89 385 1 153 25 254 90 385 103
208 275 353 482 406 70 18 116 19 656 19 l581 1 -44 39 c-24 22 -94 74 -157
116 -63 41 -114 77 -114 80 0 2 23 35 50 74 28 39 50 74 50 79 0 10 -71 46
-160 81 -243 96 -567 105 -843 25 -102 -29 -276 -105 -277 -120 0 -6 21 -46
46 -88 26 -43 45 -80 43 -82 -2 -2 -39 -30 -83 -63 l-78 -61 -88 75 c-48 41
-91 74 -96 74 -5 0 -19 -15 -32 -33 -12 -17 -36 -47 -52 -66 l-29 -34 -143 99
c-79 55 -235 161 -348 237 -277 185 -258 168 -235 203 34 52 237 324 242 324
3 0 39 -31 81 -68z m2583 -49 c13 -16 12 -17 -3 -4 -10 7 -18 15 -18 17 0 8 8
3 21 -13z m-82 -167 c29 -30 52 -59 50 -65 -5 -13 -125 75 -123 90 5 41 10 39
73 -25z m1911 -168 c13 -20 15 -111 18 -620 l2 -598 -37 -26 c-21 -14 -69 -45
-108 -69 l-70 -44 -3 487 c-2 268 0 515 3 549 6 54 12 70 46 110 50 60 93 136
110 191 14 48 19 51 39 20z m-4753 -147 c37 -21 183 -100 323 -176 318 -171
449 -245 456 -256 7 -12 -86 -159 -102 -159 -13 0 -335 128 -584 233 -85 36
-195 82 -245 102 -49 21 -94 41 -98 45 -9 8 159 249 175 250 3 0 37 -17 75
-39z m-1157 -106 c57 -29 57 -27 35 -157 -7 -48 -19 -153 -26 -234 l-12 -147
-60 -64 c-33 -35 -62 -62 -64 -59 -34 34 31 686 68 686 5 0 32 -11 59 -25z
m264 -120 c44 -20 56 -29 52 -43 -8 -27 -36 -239 -36 -275 0 -57 -10 -61 -75
-30 l-57 28 6 65 c11 113 38 280 46 280 4 0 33 -11 64 -25z m5289 -67 c4 -46
7 -297 7 -560 l0 -476 -102 -60 c-57 -33 -106 -58 -109 -56 -4 2 -8 231 -8
509 l-2 505 58 57 c32 32 64 70 72 86 8 15 18 27 22 27 4 0 10 11 13 25 4 15
13 25 25 25 15 0 19 -12 24 -82z m-4974 -64 c2 -2 -4 -54 -13 -116 -9 -62 -20
-145 -24 -185 l-7 -72 -57 26 -58 26 0 66 c0 58 21 228 35 288 l5 22 58 -26
c31 -14 59 -27 61 -29z m211 -76 l52 -23 -6 -50 c-3 -27 -11 -121 -17 -207
l-12 -157 -60 31 -60 30 6 121 c7 133 26 277 38 277 4 0 31 -10 59 -22z m4371
1 c18 -9 19 -32 19 -572 0 -309 -3 -571 -6 -582 -3 -12 -28 -33 -58 -48 -28
-15 -75 -43 -104 -62 l-52 -34 0 618 0 617 28 26 c54 50 75 60 116 53 21 -3
47 -10 57 -16z m-366 -768 l0 -664 -98 -59 c-55 -32 -100 -58 -101 -58 0 0 -3
281 -5 625 l-3 625 36 45 c79 96 139 156 155 153 14 -3 16 -65 16 -667z
m-3749 598 l54 -30 0 -154 c0 -84 -2 -159 -5 -167 -4 -10 -21 -12 -68 -8 l-62
5 1 155 c1 148 8 230 21 230 3 0 30 -14 59 -31z m265 -116 c45 -32 45 -37 16
-153 -20 -79 -24 -85 -49 -88 l-28 -3 0 135 c0 92 4 136 11 136 6 0 28 -12 50
-27z m-891 -191 c279 -171 563 -344 674 -411 59 -35 110 -70 113 -77 8 -21
-26 -74 -120 -186 -72 -87 -116 -128 -212 -198 -66 -49 -165 -134 -219 -189
-54 -56 -104 -101 -109 -101 -6 0 -31 13 -56 29 -190 118 -393 242 -611 373
-252 152 -284 177 -273 218 3 10 33 53 67 97 34 43 145 185 246 317 102 131
195 252 208 267 l23 29 57 -37 c31 -20 127 -79 212 -131z m1275 107 l107 -51
-7 -37 c-4 -20 -13 -74 -19 -121 l-11 -85 -48 -3 -47 -3 0 -65 c0 -57 3 -67
20 -71 14 -4 22 -19 30 -62 6 -31 22 -96 36 -144 13 -48 24 -92 24 -96 0 -5
-20 -14 -44 -21 l-43 -12 12 -41 c22 -72 64 -170 100 -230 19 -32 35 -63 35
-68 0 -5 -12 -14 -27 -20 -16 -5 -46 -19 -67 -30 -21 -11 -42 -17 -47 -12 -19
20 -112 222 -139 301 -47 142 -61 226 -67 402 -4 126 -1 189 11 265 23 136 55
255 71 255 7 0 61 -23 120 -51z m2650 -6 c67 -229 72 -534 14 -765 -34 -135
-101 -301 -156 -384 l-14 -22 -64 27 c-36 15 -68 30 -71 33 -3 3 15 46 39 94
44 88 88 189 101 231 6 18 0 24 -39 38 -25 10 -45 20 -45 22 0 3 13 42 29 87
16 46 34 110 40 142 6 33 18 64 26 70 11 8 15 30 15 75 l0 64 -44 -3 c-51 -4
-44 -19 -65 144 -6 45 -11 87 -13 93 -3 11 194 111 219 111 6 0 19 -26 28 -57z
m-455 -135 l0 -123 -687 2 c-379 2 -698 3 -710 3 -23 0 -23 2 -23 120 l0 120
710 0 710 0 0 -122z m2242 -295 c175 -92 268 -236 268 -414 l0 -77 -51 -32
c-29 -17 -55 -28 -58 -23 -4 4 -15 35 -25 68 -37 125 -93 212 -208 329 -60 60
-108 110 -108 112 0 4 103 74 108 74 2 0 36 -17 74 -37z m-221 -151 c86 -75
148 -146 188 -215 52 -91 100 -248 83 -273 -4 -6 -28 -22 -54 -37 -47 -27 -48
-27 -48 -6 0 41 -32 144 -66 217 -27 55 -58 97 -131 173 -53 55 -109 107 -125
117 -15 9 -28 19 -28 22 1 9 84 58 100 59 8 1 45 -25 81 -57z m-127 -187 c87
-85 186 -243 186 -297 0 -11 -59 -53 -167 -121 -365 -226 -700 -434 -735 -455
l-36 -23 -16 53 c-8 29 -22 80 -32 114 -16 60 -18 61 -115 133 -55 40 -99 75
-99 79 0 7 21 20 420 267 140 87 311 193 380 236 69 43 130 79 137 79 6 0 41
-29 77 -65z m-4470 2 c9 -23 16 -50 16 -59 0 -20 -104 -115 -255 -233 -61 -47
-157 -123 -214 -168 -154 -122 -164 -129 -173 -114 -4 6 -8 20 -8 30 0 25 126
142 269 248 82 61 145 119 216 199 55 62 104 119 110 126 15 22 21 17 39 -29z
m41 -152 c26 -38 27 -39 7 -54 -11 -9 -81 -65 -157 -126 -76 -60 -207 -167
-290 -236 -155 -128 -208 -169 -219 -169 -3 0 -6 26 -6 58 l0 57 137 105 c252
193 415 325 471 381 15 15 28 26 29 25 1 -1 14 -19 28 -41z m-1290 -175 c87
-55 223 -138 274 -169 24 -14 84 -52 132 -83 84 -55 89 -59 89 -93 l0 -35 -27
17 c-67 42 -299 205 -418 292 -72 53 -149 109 -173 125 -106 72 -18 33 123
-54z m1359 -145 l37 -56 -59 -64 c-40 -44 -76 -99 -111 -168 -72 -147 -92
-230 -98 -412 l-6 -150 -48 -38 -48 -38 -47 36 c-54 42 -87 59 -129 69 -42 10
-55 24 -55 56 0 15 -13 59 -29 96 -16 38 -37 105 -46 148 -17 77 -17 79 2 95
265 215 378 307 473 385 63 52 118 95 121 95 3 1 23 -24 43 -54z m933 -56 c46
-17 70 -47 95 -117 27 -78 60 -116 114 -131 51 -14 715 -15 766 -1 44 13 89
63 114 129 43 115 77 131 275 131 85 0 170 -6 217 -15 98 -20 259 -98 331
-162 70 -62 146 -177 174 -267 21 -69 22 -82 22 -546 0 -466 0 -476 -23 -547
-64 -204 -227 -324 -422 -310 -88 6 -144 29 -203 86 -55 52 -82 111 -121 268
-45 180 -68 240 -121 313 -55 74 -121 123 -202 150 -59 20 -79 21 -445 18
l-383 -3 -65 -32 c-144 -71 -217 -184 -275 -426 -19 -81 -46 -169 -59 -195
-32 -63 -91 -122 -152 -152 -42 -21 -63 -25 -149 -25 -88 0 -107 3 -157 27
-107 50 -194 151 -240 278 -23 65 -23 67 -23 555 l0 490 26 67 c40 103 87 174
162 243 96 89 245 159 382 178 66 9 335 6 362 -4z m2441 -152 c73 -57 86 -80
102 -167 6 -36 13 -77 16 -92 5 -26 4 -26 -58 -32 -35 -4 -92 -7 -127 -9 l-64
-2 -12 50 c-6 28 -19 64 -28 82 -23 44 -22 50 24 152 48 104 40 103 147 18z
m-4627 -41 c75 -8 155 -37 229 -83 l61 -40 -38 -11 c-140 -41 -258 -36 -361
15 -48 24 -122 97 -110 109 7 7 120 21 143 18 11 -1 45 -5 76 -8z m5715 -166
c79 -39 96 -132 33 -184 -105 -89 -247 23 -184 144 9 17 17 30 18 30 1 0 20 7
42 15 50 18 42 18 91 -5z m-5400 -89 c27 -5 63 -15 79 -21 l30 -12 -50 -45
c-74 -67 -123 -86 -225 -87 -72 0 -94 4 -143 27 -35 16 -57 32 -55 39 3 7 38
30 79 51 99 51 189 66 285 48z m214 -48 c7 -16 15 -58 17 -94 8 -98 -13 -152
-88 -224 -33 -32 -63 -54 -67 -51 -4 4 -7 58 -7 119 0 81 4 119 15 139 18 32
102 137 111 138 3 0 12 -12 19 -27z m4925 -126 c41 -41 50 -72 35 -125 -18
-68 -86 -102 -149 -76 -49 20 -69 41 -80 82 -14 48 -3 88 31 123 25 24 38 29
80 29 43 0 54 -4 83 -33z m-335 -22 c-5 -22 -10 -53 -10 -70 l0 -30 -93 0
c-87 -1 -96 -3 -177 -43 -47 -23 -99 -50 -117 -60 -28 -17 -40 -18 -90 -9 -50
8 -91 34 -93 57 0 3 41 4 90 2 96 -4 169 8 229 35 47 22 209 117 241 142 14
11 26 19 27 18 1 -2 -2 -20 -7 -42z m570 -105 c56 -56 18 -165 -66 -186 -13
-3 -40 -2 -60 2 l-35 9 35 46 c21 26 41 68 48 97 11 44 16 52 35 52 13 0 32
-9 43 -20z m-5874 -35 c34 -52 -31 -111 -76 -70 -22 20 -26 65 -8 83 21 21 66
14 84 -13z m5306 -141 c9 -16 26 -73 37 -127 22 -109 63 -206 109 -254 34 -36
154 -116 206 -138 l34 -15 -28 -73 c-16 -41 -34 -102 -41 -136 l-12 -61 -46 0
c-117 -1 -241 -51 -310 -125 -39 -42 -121 -195 -121 -225 0 -9 -11 -10 -37 -5
-21 4 -74 10 -117 14 l-79 6 -16 60 c-22 79 -75 177 -120 221 -20 19 -66 50
-102 68 l-66 33 28 62 c48 106 61 194 57 386 -2 146 -1 170 12 167 51 -12 157
-13 216 -3 85 15 142 41 264 119 52 34 99 60 105 59 5 -2 17 -17 27 -33z
m-4363 -22 c6 -21 14 -53 17 -70 5 -26 15 -36 52 -52 58 -26 61 -26 120 14
l51 34 25 -27 26 -27 0 -194 c0 -148 4 -207 16 -251 13 -46 14 -65 5 -90 -17
-49 -14 -66 24 -122 19 -28 35 -59 35 -68 0 -9 -28 -47 -63 -85 l-63 -67 -63
35 -63 36 -47 -20 c-46 -20 -48 -22 -65 -90 l-18 -69 -101 3 -101 3 -21 68
c-19 64 -23 69 -63 87 l-43 19 -63 -31 -63 -31 -46 50 c-25 27 -55 60 -66 75
l-20 25 34 54 c19 30 35 64 35 75 0 36 -32 64 -95 83 l-60 19 -3 85 -3 85 28
6 c94 23 105 28 123 59 l19 31 -37 68 -36 68 65 66 66 66 61 -33 62 -34 47 25
c44 23 48 29 60 83 7 33 15 63 19 68 3 5 50 9 104 9 l99 0 10 -38z m2372 -300
c98 -63 173 -174 198 -290 7 -34 11 -190 11 -430 l0 -377 -98 -54 c-53 -30
-176 -100 -273 -157 -97 -57 -180 -104 -184 -104 -7 0 -360 200 -497 282 l-68
40 0 373 c0 211 4 396 10 426 23 122 97 232 193 288 l52 31 306 0 305 0 45
-28z m-1331 -868 c82 -15 120 -43 120 -90 0 -30 -33 -64 -62 -64 -30 0 -239
72 -272 94 -30 19 -33 47 -10 70 18 18 87 15 224 -10z m2181 16 c23 -13 26
-62 4 -80 -16 -13 -250 -90 -274 -90 -25 0 -61 42 -61 71 0 49 27 68 120 84
160 27 185 28 211 15z"/>
<path d="M5058 8148 l-44 -103 -65 -11 c-35 -7 -85 -12 -111 -13 -26 -1 -49
-5 -53 -11 -5 -8 36 -51 124 -127 l34 -30 -21 -89 c-31 -130 -35 -154 -24
-154 5 0 53 28 108 63 l99 63 108 -65 c59 -35 110 -61 114 -57 5 5 -24 128
-53 227 -3 11 22 38 81 85 47 38 85 75 85 82 0 7 -15 12 -42 13 -24 0 -76 6
-116 12 l-74 12 -41 99 c-23 55 -47 101 -53 103 -6 2 -31 -43 -56 -99z"/>
<path d="M7135 7922 c-120 -42 -357 -155 -362 -172 -3 -8 -29 -65 -59 -126
-50 -105 -137 -326 -137 -350 0 -15 73 -183 138 -315 28 -58 54 -115 57 -127
4 -12 14 -25 25 -28 10 -4 65 -28 123 -54 58 -26 150 -64 205 -85 120 -45 110
-47 353 56 92 39 176 74 187 79 13 5 41 55 84 151 36 79 82 181 103 226 21 45
38 89 38 97 0 22 -93 252 -139 344 -21 42 -44 94 -51 115 -6 21 -19 41 -29 44
-9 3 -56 24 -106 48 -130 61 -264 113 -310 120 -30 4 -61 -2 -120 -23z m238
-166 c167 -59 277 -180 322 -353 40 -152 -8 -325 -124 -443 -179 -183 -469
-188 -662 -12 -158 145 -197 369 -99 563 108 214 351 319 563 245z"/>
<path d="M7160 7528 c-44 -13 -102 -54 -128 -93 -12 -16 -27 -53 -33 -81 -34
-147 61 -278 211 -291 102 -10 195 41 243 131 28 53 29 155 3 206 -57 108
-179 162 -296 128z"/>
<path d="M2252 5603 c-19 -30 -21 -38 -10 -49 25 -24 212 -134 228 -134 8 0
25 16 37 34 l22 34 -67 43 c-111 70 -176 109 -181 109 -3 -1 -16 -17 -29 -37z"/>
<path d="M2300 5303 c-53 -65 -53 -101 1 -128 43 -23 68 -10 102 54 l28 51
-30 30 c-39 40 -63 38 -101 -7z"/>
<path d="M2496 5199 c-15 -17 -34 -45 -42 -61 -14 -26 -14 -32 0 -52 8 -13 28
-29 45 -36 37 -15 47 -8 93 58 36 52 32 84 -12 107 -42 22 -55 19 -84 -16z"/>
<path d="M2676 5073 c-43 -55 -44 -86 -4 -116 37 -28 71 -16 108 37 37 55 38
78 4 105 -42 33 -67 27 -108 -26z"/>
<path d="M3015 4075 c-50 -49 -20 -137 51 -151 25 -5 36 0 63 27 29 29 33 37
28 73 -10 73 -92 102 -142 51z"/>
<path d="M3178 3910 c-25 -15 -41 -72 -29 -103 17 -44 85 -63 122 -34 42 32
49 81 18 121 -16 20 -29 26 -57 26 -20 0 -45 -5 -54 -10z"/>
<path d="M4030 4352 c-50 -25 -60 -52 -60 -169 0 -75 -3 -103 -12 -104 -7 -1
-52 -2 -99 -3 -96 -2 -128 -15 -149 -65 -17 -41 -6 -93 27 -125 24 -25 31 -26
129 -26 l104 0 0 -96 c0 -96 0 -96 34 -130 28 -28 42 -34 76 -34 34 0 48 6 76
34 34 34 34 34 34 130 l0 96 100 0 c95 0 101 1 130 28 64 56 43 159 -37 181
-21 6 -73 11 -115 11 l-78 0 0 108 c0 121 -9 144 -66 168 -43 18 -52 18 -94
-4z"/>
<path d="M6090 4362 c-51 -23 -90 -78 -90 -127 0 -97 118 -166 198 -116 65 41
86 107 58 176 -25 58 -109 92 -166 67z"/>
<path d="M5854 4106 c-76 -33 -103 -141 -52 -208 29 -38 78 -57 127 -50 39 5
97 58 106 95 16 64 -20 138 -81 163 -41 17 -60 17 -100 0z"/>
<path d="M6320 4098 c-36 -18 -49 -32 -64 -70 -20 -48 -20 -48 0 -95 45 -110
188 -114 239 -7 37 79 -12 172 -101 189 -19 4 -44 -1 -74 -17z"/>
<path d="M4641 3914 c-55 -70 11 -160 94 -128 19 8 45 55 45 84 0 33 -44 70
-84 70 -25 0 -40 -7 -55 -26z"/>
<path d="M5499 3921 c-18 -14 -24 -29 -24 -61 0 -32 6 -47 24 -61 53 -43 131
-7 131 60 0 70 -77 106 -131 62z"/>
<path d="M6085 3848 c-90 -49 -110 -149 -44 -216 101 -103 276 16 213 145 -34
67 -114 102 -169 71z"/>
<path d="M2905 3196 c-42 -18 -93 -79 -101 -121 -21 -112 60 -209 173 -209
132 0 215 144 150 259 -41 73 -143 106 -222 71z"/>
<path d="M5073 3225 c-30 -13 -37 -24 -45 -80 -2 -12 -21 -28 -50 -42 -112
-53 -171 -161 -149 -272 22 -110 72 -153 254 -223 105 -39 134 -58 148 -96 13
-35 -12 -86 -50 -102 -53 -22 -162 -8 -234 29 l-62 32 -27 -33 c-15 -18 -35
-50 -45 -72 -24 -54 -28 -52 205 -122 7 -2 12 -20 12 -43 0 -50 29 -81 77 -81
69 0 103 33 103 101 0 21 6 28 28 33 15 4 50 22 78 41 93 61 133 188 90 290
-34 81 -94 123 -274 195 -48 19 -91 43 -102 58 -52 66 3 142 104 142 30 0 141
-31 198 -55 12 -5 25 6 52 47 20 29 36 60 36 69 0 19 -68 51 -152 70 -54 13
-58 16 -58 42 0 30 -39 77 -64 77 -8 0 -20 2 -28 5 -7 2 -27 -2 -45 -10z"/>
</g>
</svg>
