<?xml version="1.0" standalone="no"?>
<!DOCTYPE svg PUBLIC "-//W3C//DTD SVG 20010904//EN"
 "http://www.w3.org/TR/2001/REC-SVG-20010904/DTD/svg10.dtd">
<svg version="1.0" xmlns="http://www.w3.org/2000/svg"
 width="504.000000pt" height="504.000000pt" viewBox="0 0 504.000000 504.000000"
 preserveAspectRatio="xMidYMid meet">

<g transform="translate(0.000000,504.000000) scale(0.100000,-0.100000)"
fill="#000000" stroke="none">
<path d="M2199 5025 c-578 -80 -1158 -384 -1520 -800 -180 -207 -297 -381
-409 -610 -67 -137 -144 -337 -164 -425 l-5 -25 467 0 c373 0 474 -3 499 -14
43 -18 73 -67 73 -121 0 -55 -50 -109 -102 -111 -18 -1 -247 0 -510 1 l-476 2
-12 -23 c-19 -34 -26 -474 -11 -634 14 -150 41 -304 76 -430 27 -98 109 -320
125 -341 9 -10 20 -7 53 12 23 13 45 24 48 24 6 0 93 -116 355 -470 216 -292
284 -385 284 -392 0 -3 -16 -16 -35 -28 -19 -12 -35 -25 -35 -29 0 -5 33 -35
72 -68 285 -236 730 -433 1118 -497 430 -71 859 -34 1269 109 552 192 1002
552 1321 1054 72 114 190 362 233 491 66 196 108 427 123 672 l7 117 -509 3
c-569 3 -544 0 -579 75 -24 50 -14 99 30 143 l35 35 505 3 505 3 -6 57 c-28
263 -136 622 -261 864 -175 341 -500 710 -808 918 -355 240 -691 371 -1103
430 -168 24 -495 26 -653 5z m770 -459 c229 -62 424 -293 424 -501 -1 -35 -11
-74 -35 -130 -37 -84 -56 -160 -40 -154 5 2 26 23 45 47 137 164 305 208 488
126 76 -34 160 -123 189 -201 24 -66 27 -180 5 -244 -22 -64 -94 -142 -163
-176 l-57 -28 -965 0 c-960 0 -965 0 -1010 21 -81 38 -139 112 -165 209 -39
147 41 312 184 382 49 24 68 28 146 28 78 0 97 -4 142 -27 28 -15 54 -32 58
-38 15 -24 23 -7 12 28 -18 64 -12 209 13 282 67 202 257 359 475 394 50 7
196 -3 254 -18z m-1577 -104 c109 -120 135 -311 62 -455 -35 -68 -112 -143
-182 -175 -50 -24 -69 -27 -162 -27 -97 0 -110 2 -170 31 -70 34 -135 90 -175
153 -14 23 -25 42 -25 44 0 2 33 -7 73 -21 215 -72 435 52 497 280 13 49 10
186 -5 222 -7 17 -6 17 22 3 16 -9 45 -33 65 -55z m1277 -1408 c80 -25 148
-48 150 -50 8 -8 -7 -14 -147 -58 l-142 -44 -145 46 c-80 26 -145 49 -145 53
0 6 254 97 274 98 5 1 75 -20 155 -45z m456 -158 c61 -19 125 -41 144 -49 l33
-14 -128 -43 c-71 -24 -138 -43 -148 -42 -11 1 -84 22 -164 49 l-144 47 139
47 c76 25 143 45 148 43 6 -1 60 -18 120 -38z m-971 5 c50 -16 111 -34 135
-41 23 -6 41 -13 38 -16 -10 -11 -269 -94 -292 -94 -28 0 -165 42 -225 69
l-42 18 34 13 c132 48 226 79 242 80 10 0 60 -13 110 -29z m438 -135 c35 -13
106 -36 158 -51 52 -15 99 -30 104 -33 11 -6 -71 -40 -214 -86 l-115 -37 -168
59 -168 58 143 47 c79 26 150 52 158 57 22 14 33 13 102 -14z m838 -498 l0
-493 -73 -32 c-39 -17 -184 -84 -322 -148 -351 -164 -419 -195 -431 -195 -2 0
-4 237 -4 528 l0 527 203 73 c111 40 205 72 210 72 4 0 7 -61 7 -136 0 -105 3
-135 13 -131 6 3 36 16 64 28 l53 24 0 136 0 137 133 50 c72 28 135 50 140 51
4 1 7 -221 7 -491z m-1695 446 c55 -20 117 -41 137 -46 l37 -10 3 -136 3 -135
63 -33 c34 -18 63 -31 63 -29 1 3 3 10 4 15 1 6 3 66 4 134 l1 124 63 -24 c34
-13 125 -45 202 -72 l140 -49 3 -517 c2 -413 0 -517 -10 -514 -7 3 -80 25
-162 49 -147 43 -150 45 -195 94 -143 156 -249 237 -382 290 l-84 34 -3 431
c-1 236 1 430 5 430 5 0 53 -16 108 -36z m-567 -23 c95 -49 96 -173 1 -221
-39 -20 -53 -21 -439 -18 l-399 3 -35 34 c-37 36 -53 83 -42 125 8 31 60 83
89 89 12 2 194 5 405 6 358 1 385 0 420 -18z m3542 -434 c13 -7 35 -28 47 -46
42 -62 23 -145 -40 -177 -36 -19 -50 -20 -340 -16 l-209 2 -33 33 c-63 63 -54
153 17 197 31 18 51 20 283 20 180 0 257 -4 275 -13z m-3320 -487 c125 -15
268 -64 353 -120 44 -29 121 -98 197 -177 147 -153 132 -146 457 -228 118 -30
230 -62 249 -71 103 -49 126 -202 36 -248 -69 -35 -62 -36 -545 88 -318 82
-330 83 -343 31 -7 -28 14 -67 49 -89 43 -28 695 -196 760 -196 189 0 329 163
284 331 -8 30 -17 61 -21 69 -5 11 3 20 26 31 45 21 564 289 663 342 44 24
127 70 185 102 182 100 192 105 229 105 72 0 132 -58 133 -129 0 -48 -22 -86
-63 -109 -34 -19 -158 -94 -531 -321 -409 -249 -561 -336 -777 -444 l-203
-102 -102 0 c-112 1 -92 -5 -431 120 -422 156 -729 265 -747 265 -19 0 -189
-91 -220 -118 -16 -13 -15 -17 17 -57 19 -23 35 -46 35 -51 -1 -11 -12 3 -172
215 -219 291 -378 513 -378 528 0 10 188 106 301 154 174 74 369 102 559 79z
m2235 -60 c3 -5 1 -10 -5 -10 -6 0 -202 -94 -436 -210 -234 -115 -430 -210
-435 -210 -38 0 34 41 327 185 185 90 366 182 403 202 90 52 133 64 146 43z"/>
</g>
</svg>
