<svg width="500" height="500" viewBox="0 0 500 500" fill="none" xmlns="http://www.w3.org/2000/svg">
<path d="M0 250V500H250H500V250V0H250H0V250ZM263.818 92.0898C271.68 96.2891 278.369 100 278.76 100.342C279.346 100.879 278.613 103.76 274.17 119.238C271.289 129.248 268.506 138.965 267.969 140.869C267.432 142.725 266.846 144.482 266.602 144.678C266.406 144.922 262.5 143.213 257.91 140.918L249.512 136.719L241.162 140.869C236.572 143.164 232.764 145.02 232.666 145.02C232.275 145.02 228.809 133.643 222.949 113.281C221.24 107.227 219.678 101.904 219.482 101.465C219.287 100.928 219.531 100.439 220.312 100C223.779 97.998 248.828 84.5703 249.17 84.5215C249.365 84.4727 255.957 87.8906 263.818 92.0898ZM208.887 104.492C209.473 106.104 209.717 107.52 209.424 107.666C209.18 107.812 207.715 108.398 206.201 108.936C204.639 109.424 200.781 110.938 197.656 112.207L191.895 114.502V116.455C191.895 122.266 186.523 125.586 181.152 123.047L178.809 121.973L174.268 124.951L169.727 127.93L167.334 125.586L164.941 123.193L168.311 120.996C170.117 119.775 172.803 118.164 174.268 117.334C176.318 116.211 177.002 115.479 177.49 114.111C178.32 111.719 179.004 110.986 181.348 109.766C182.812 108.984 183.789 108.838 185.547 109.082C187.5 109.326 188.379 109.131 191.064 107.861C193.994 106.494 206.836 101.611 207.617 101.562C207.764 101.562 208.35 102.881 208.887 104.492ZM297.852 104.004C303.857 106.152 316.064 111.328 316.748 112.012C317.041 112.305 316.113 114.062 314.6 116.064L313.428 117.578L308.936 115.479C304.688 113.525 301.416 112.256 292.236 108.936C289.6 108.008 288.379 107.324 288.477 106.885C288.574 106.494 288.916 105.176 289.209 103.857C289.551 102.588 290.039 101.562 290.381 101.562C290.723 101.562 294.092 102.686 297.852 104.004ZM355.664 103.955C357.52 105.811 358.838 106.641 361.768 107.715C363.818 108.447 367.773 110.107 370.557 111.426C374.658 113.33 376.123 113.77 378.027 113.721C381.396 113.574 382.52 114.697 382.178 117.871C381.982 119.971 382.275 120.898 384.277 125.195C385.547 127.93 387.305 132.08 388.232 134.473C389.551 137.988 390.479 139.453 392.773 141.943L395.654 145.068L392.725 147.949C391.113 149.561 389.453 151.562 389.062 152.441C388.623 153.32 386.865 157.324 385.107 161.377C382.227 167.969 381.934 168.945 382.178 171.045C382.568 174.463 381.592 175.439 377.979 175.049C375.391 174.756 374.854 174.902 368.652 177.637C365.039 179.199 361.279 180.762 360.352 181.104C359.375 181.396 357.422 182.861 355.957 184.326L353.32 187.012L350.586 184.375C348.291 182.129 347.021 181.396 341.797 179.297C338.428 177.93 334.375 176.318 332.812 175.635C330.566 174.707 329.541 174.512 328.223 174.854C325.049 175.537 323.34 173.682 324.219 170.459C324.658 168.701 324.512 168.213 321.875 162.549C320.312 159.229 318.506 155.273 317.92 153.76C317.188 151.855 315.918 150.098 313.867 148.047L310.889 145.068L313.525 142.188C315.625 139.893 316.65 138.135 318.311 133.936C319.482 131.055 321.387 126.758 322.559 124.414C324.463 120.654 324.609 120.02 324.17 118.652C323.779 117.529 323.779 116.797 324.219 115.674C325.049 113.77 326.123 113.184 328.125 113.77C329.492 114.16 330.225 113.965 333.447 112.354C335.498 111.328 339.795 109.424 343.018 108.154C347.949 106.201 349.17 105.469 350.732 103.662C351.758 102.539 352.783 101.562 352.979 101.562C353.174 101.562 354.395 102.637 355.664 103.955ZM213.135 117.969C213.623 119.775 213.818 121.338 213.574 121.582C213.33 121.777 210.938 122.803 208.252 123.779C200.146 126.807 186.67 133.887 181.689 137.793L180.469 138.721L177.881 136.133C176.465 134.717 175.293 133.447 175.293 133.252C175.293 132.373 184.229 126.709 191.455 122.949C197.168 119.971 209.668 114.941 211.719 114.795C212.012 114.746 212.646 116.211 213.135 117.969ZM296.826 118.408C301.904 120.361 307.617 122.9 308.447 123.633C309.131 124.219 308.496 125.684 306.494 128.125L305.322 129.541L300 127.344C297.07 126.123 292.383 124.365 289.551 123.486C286.719 122.607 284.326 121.826 284.277 121.777C284.131 121.68 285.205 117.432 285.889 115.381C286.084 114.746 290.234 115.869 296.826 118.408ZM135.938 123.096C139.6 125.342 143.213 127.637 143.896 128.223L145.166 129.199L143.506 132.373C141.895 135.449 141.797 135.498 140.137 135.254C139.209 135.107 136.133 135.01 133.301 135.01C128.467 135.01 127.93 135.107 124.902 136.621C121.094 138.477 117.871 141.797 115.576 146.24C114.111 148.975 114.014 149.512 114.014 154.053C114.014 158.594 114.111 159.18 115.625 162.207C119.482 170.068 128.076 174.756 136.133 173.34C139.99 172.705 143.506 171.143 146.191 168.994L148.145 167.432L149.951 169.531C150.977 170.703 151.758 171.826 151.709 172.021C151.416 173.145 142.236 185.059 141.699 185.059C141.357 185.059 138.916 183.936 136.23 182.617C133.496 181.25 128.32 178.76 124.609 177.051C117.383 173.682 98.1934 164.258 97.8027 163.867C97.6562 163.721 98.6328 162.012 100 160.059C101.318 158.105 108.057 147.949 114.99 137.549C124.805 122.656 127.734 118.604 128.418 118.799C128.857 118.896 132.275 120.85 135.938 123.096ZM164.99 135.742C167.92 138.281 170.361 140.527 170.361 140.771C170.41 140.967 169.141 142.725 167.578 144.678C166.016 146.582 163.135 150.488 161.133 153.32C159.18 156.152 157.422 158.594 157.227 158.838C156.934 159.18 151.367 154.932 146.533 150.537L143.848 148.145L147.949 141.797C150.146 138.33 152.979 133.887 154.199 131.982L156.396 128.418L158.008 129.785C158.887 130.518 162.061 133.203 164.99 135.742ZM217.041 131.934C217.48 133.643 217.822 135.205 217.773 135.498C217.676 135.742 215.967 136.67 213.916 137.5C210.4 138.916 210.205 139.062 210.059 140.674C209.766 143.799 207.324 145.02 205.029 143.115C203.955 142.236 203.906 142.236 200.977 143.945C199.316 144.922 196.533 146.631 194.775 147.754L191.504 149.805L188.574 146.973L185.645 144.092L187.158 142.92C189.551 141.113 193.701 138.574 198.389 136.035C202.832 133.643 214.014 128.955 215.381 128.906C215.967 128.906 216.455 129.785 217.041 131.934ZM289.062 131.152C294.775 133.105 301.27 136.035 301.27 136.67C301.27 137.549 296.729 143.115 296.191 142.871C289.404 139.893 286.23 138.574 283.301 137.646C280.664 136.816 279.834 136.328 280.029 135.791C280.176 135.4 280.664 133.691 281.055 132.031C281.982 128.418 281.396 128.467 289.062 131.152ZM136.67 142.139C137.5 142.432 138.184 142.725 138.184 142.822C138.184 142.92 137.646 144.141 136.963 145.605C135.498 148.73 135.303 152.979 136.523 154.736C136.963 155.322 138.33 156.787 139.551 157.861C143.457 161.475 143.262 161.084 141.943 162.793C137.207 168.945 126.367 167.432 122.314 160.059C120.459 156.689 120.312 151.807 121.973 148.633C123.242 146.191 126.807 142.92 129.004 142.236C131.201 141.504 134.766 141.504 136.67 142.139ZM221.289 145.996C222.51 150 222.51 150 219.141 151.318C214.697 153.027 208.252 156.152 204.639 158.35L201.514 160.254L199.17 157.617C197.852 156.201 196.826 154.883 196.777 154.688C196.777 154.248 206.885 148.242 210.156 146.729C216.211 143.994 218.555 143.115 219.482 143.213C220.166 143.262 220.654 144.043 221.289 145.996ZM283.594 145.215C289.209 147.412 292.48 148.926 292.48 149.268C292.48 149.756 289.551 154.15 288.867 154.785C288.33 155.176 287.5 154.98 285.352 154.053C283.74 153.32 281.055 152.197 279.297 151.514C277.539 150.83 276.074 150.195 275.977 150.146C275.879 150.049 276.221 148.584 276.709 146.777C277.344 144.287 277.734 143.555 278.418 143.555C278.955 143.555 281.25 144.287 283.594 145.215ZM178.613 150.293C191.211 161.475 202.881 171.387 203.467 171.387C203.76 171.387 205.469 170.41 207.324 169.189C215.479 163.818 226.172 159.521 235.156 157.959C241.748 156.787 254.883 156.787 261.475 157.91C264.16 158.35 268.115 159.277 270.264 159.961C275.977 161.816 285.254 166.504 290.527 170.264C299.121 176.416 309.033 187.354 313.672 195.85L315.43 199.072L308.545 202.832L301.66 206.543H268.848C233.154 206.543 233.447 206.543 227.637 209.375C221.826 212.158 216.895 218.896 215.088 226.416C214.453 229.102 214.307 231.201 214.502 234.961C214.795 240.82 215.967 244.678 218.701 248.877C222.168 254.15 225.684 256.934 231.787 259.131C234.863 260.254 235.205 260.254 254.883 260.254H274.902V255.371V250.488H250.488H226.074V244.385V238.281H260.742H295.41V253.369V268.457L286.426 268.652L277.441 268.799L272.803 271.143L268.164 273.486L248.975 273.34C230.322 273.193 229.688 273.145 228.271 272.168C227.49 271.582 224.951 270.215 222.656 269.092C214.209 264.99 209.18 260.107 205.322 252.197C202.051 245.459 200.928 240.771 200.977 233.398C201.025 225.928 202.197 220.996 205.371 214.6C210.4 204.443 218.799 197.363 228.906 194.775C232.324 193.896 234.57 193.848 260.938 193.848L289.307 193.799L287.158 191.895C285.986 190.82 282.568 188.281 279.492 186.23C276.416 184.229 273.926 182.471 273.926 182.324C273.926 182.227 275.049 180.615 276.367 178.711C277.734 176.807 278.809 175.098 278.809 174.854C278.809 174.365 275.342 172.607 270.996 170.898C259.131 166.211 243.311 165.771 229.834 169.678C224.854 171.094 216.357 174.805 216.309 175.537C216.309 175.83 217.334 177.783 218.555 179.834C219.824 181.934 220.752 183.74 220.654 183.838C220.557 183.936 218.75 185.303 216.602 186.914L212.793 189.893L208.496 186.23C206.152 184.229 204.053 182.617 203.809 182.617C203.564 182.617 202.881 183.35 202.246 184.229C201.66 185.059 200.488 186.523 199.707 187.451L198.291 189.111L191.309 184.277C187.451 181.592 179.834 176.416 174.316 172.705C160.791 163.672 161.719 164.502 162.842 162.793C164.502 160.254 174.414 146.973 174.658 146.973C174.805 146.973 176.562 148.486 178.613 150.293ZM304.736 152.686C305.371 153.467 305.322 153.516 304.59 152.881C304.102 152.539 303.711 152.148 303.711 152.051C303.711 151.66 304.102 151.904 304.736 152.686ZM300.732 160.84C302.148 162.305 303.271 163.721 303.174 164.014C302.93 164.648 297.07 160.352 297.168 159.619C297.412 157.617 297.656 157.715 300.732 160.84ZM394.043 169.043C394.678 170.02 394.775 174.463 394.922 199.316L395.02 228.516L393.213 229.785C392.188 230.469 389.844 231.982 387.939 233.154L384.521 235.303L384.375 211.523C384.277 198.438 384.375 186.377 384.521 184.717C384.814 182.08 385.107 181.299 386.768 179.346C389.209 176.416 391.309 172.705 392.139 170.02C392.822 167.676 393.066 167.529 394.043 169.043ZM161.963 176.221C163.77 177.246 170.898 181.104 177.734 184.814C193.262 193.164 199.658 196.777 200 197.314C200.342 197.9 195.801 205.078 195.02 205.078C194.385 205.078 178.662 198.828 166.504 193.701C162.354 191.943 156.982 189.697 154.541 188.721C152.148 187.695 149.951 186.719 149.756 186.523C149.316 186.133 157.52 174.365 158.301 174.316C158.447 174.316 160.107 175.146 161.963 176.221ZM105.469 181.396C108.252 182.812 108.252 182.715 107.178 189.062C106.836 191.406 106.25 196.533 105.908 200.488L105.322 207.666L102.393 210.791C100.781 212.5 99.3652 213.818 99.2676 213.672C97.6074 212.012 100.781 180.176 102.588 180.176C102.832 180.176 104.15 180.713 105.469 181.396ZM118.359 187.256C120.508 188.232 121.094 188.672 120.898 189.355C120.508 190.674 119.141 201.025 119.141 202.783C119.141 205.566 118.652 205.762 115.479 204.248L112.695 202.881L112.988 199.707C113.525 194.189 114.844 186.035 115.234 186.035C115.43 186.035 116.846 186.572 118.359 187.256ZM376.611 190.527C376.807 192.773 376.953 205.029 376.953 217.871V241.113L371.973 244.043C369.189 245.654 366.797 246.875 366.65 246.777C366.455 246.68 366.26 235.498 366.26 221.924L366.162 197.266L368.994 194.482C370.557 192.92 372.119 191.064 372.51 190.283C372.9 189.551 373.389 188.965 373.584 188.965C373.779 188.965 374.072 188.428 374.219 187.744C374.414 187.012 374.854 186.523 375.439 186.523C376.172 186.523 376.367 187.109 376.611 190.527ZM133.74 193.652C133.838 193.75 133.545 196.289 133.105 199.316C132.666 202.344 132.129 206.396 131.934 208.35L131.592 211.865L128.809 210.596L125.977 209.326V206.104C125.977 203.271 127.002 194.971 127.686 192.041L127.93 190.967L130.762 192.236C132.275 192.92 133.643 193.555 133.74 193.652ZM144.043 197.363L146.582 198.486L146.289 200.928C146.143 202.246 145.752 206.836 145.459 211.035L144.873 218.701L141.943 217.188L139.014 215.723L139.307 209.814C139.648 203.32 140.576 196.289 141.162 196.289C141.357 196.289 142.676 196.777 144.043 197.363ZM357.471 197.314C358.35 197.754 358.398 198.877 358.398 225.244C358.398 240.332 358.252 253.125 358.105 253.662C357.959 254.248 356.738 255.273 355.273 256.006C353.906 256.738 351.611 258.105 350.195 259.033L347.656 260.693V230.518V200.391L349.023 199.121C351.66 196.68 352.686 196.191 354.688 196.533C355.713 196.68 356.982 197.021 357.471 197.314ZM339.6 234.814V267.236L334.814 270.117C332.129 271.68 329.932 272.949 329.883 272.949C329.883 272.949 329.736 259.229 329.639 242.432L329.492 211.914L331.25 209.717C335.107 205.029 338.037 202.1 338.818 202.246C339.502 202.393 339.6 205.42 339.6 234.814ZM156.543 205.615L159.18 207.08V214.6C159.18 218.701 159.082 222.363 158.936 222.754C158.74 223.242 157.91 223.34 155.615 223.145L152.588 222.9L152.637 215.332C152.686 208.105 153.027 204.102 153.662 204.102C153.809 204.102 155.127 204.785 156.543 205.615ZM169.482 211.279C171.68 212.842 171.68 213.086 170.264 218.75C169.287 222.607 169.092 222.9 167.871 223.047L166.504 223.193V216.602C166.504 212.109 166.699 209.961 167.041 209.961C167.334 209.961 168.408 210.547 169.482 211.279ZM125.977 220.605C139.6 228.955 153.467 237.402 158.887 240.674C161.768 242.383 164.258 244.092 164.404 244.434C164.795 245.459 163.135 248.047 158.545 253.516C155.029 257.764 152.881 259.766 148.193 263.184C144.971 265.576 140.137 269.727 137.5 272.412C134.863 275.146 132.422 277.344 132.178 277.344C131.885 277.344 130.664 276.709 129.443 275.928C120.166 270.166 110.254 264.111 99.6094 257.715C87.3047 250.293 85.7422 249.072 86.2793 247.07C86.4258 246.582 87.8906 244.482 89.5508 242.334C91.2109 240.234 96.6309 233.301 101.562 226.855C106.543 220.459 111.084 214.551 111.719 213.818L112.842 212.402L115.625 214.209C117.139 215.186 121.826 218.066 125.977 220.605ZM188.232 215.381L193.457 217.871L193.115 219.678C192.92 220.654 192.48 223.291 192.188 225.586L191.65 229.736L189.307 229.883L187.012 230.029V233.203C187.012 235.986 187.158 236.475 187.988 236.67C188.672 236.865 189.062 237.598 189.453 239.697C189.746 241.211 190.527 244.385 191.211 246.729C191.846 249.072 192.383 251.221 192.383 251.416C192.383 251.66 191.406 252.1 190.234 252.441L188.135 253.027L188.721 255.029C189.795 258.545 191.846 263.33 193.604 266.26C194.531 267.822 195.312 269.336 195.312 269.58C195.312 269.824 194.727 270.264 193.994 270.557C193.213 270.801 191.748 271.484 190.723 272.021C189.697 272.559 188.672 272.852 188.428 272.607C187.5 271.631 182.959 261.768 181.641 257.91C179.346 250.977 178.662 246.875 178.369 238.281C178.174 232.129 178.32 229.053 178.906 225.342C180.029 218.701 181.592 212.891 182.373 212.891C182.715 212.891 185.352 214.014 188.232 215.381ZM317.627 215.674C320.898 226.855 321.143 241.748 318.311 253.027C316.65 259.619 313.379 267.725 310.693 271.777L310.01 272.852L306.885 271.533C305.127 270.801 303.564 270.068 303.418 269.922C303.271 269.775 304.15 267.676 305.322 265.332C307.471 261.035 309.619 256.104 310.254 254.053C310.547 253.174 310.254 252.881 308.35 252.197C307.129 251.709 306.152 251.221 306.152 251.123C306.152 250.977 306.787 249.072 307.568 246.875C308.35 244.629 309.229 241.504 309.521 239.941C309.814 238.33 310.4 236.816 310.791 236.523C311.328 236.133 311.523 235.059 311.523 232.861V229.736L309.375 229.883C306.885 230.078 307.227 230.811 306.201 222.852C305.908 220.654 305.664 218.604 305.566 218.311C305.42 217.773 315.039 212.891 316.26 212.891C316.553 212.891 317.188 214.16 317.627 215.674ZM295.41 222.266V228.271L261.865 228.174C243.359 228.076 227.783 228.027 227.197 228.027C226.074 228.027 226.074 227.93 226.074 222.168V216.309H260.742H295.41V222.266ZM404.883 236.67C413.428 241.162 417.969 248.193 417.969 256.885V260.645L415.479 262.207C414.062 263.037 412.793 263.574 412.646 263.33C412.451 263.135 411.914 261.621 411.426 260.01C409.619 253.906 406.885 249.658 401.27 243.945C398.34 241.016 395.996 238.574 395.996 238.477C395.996 238.281 401.025 234.863 401.27 234.863C401.367 234.863 403.027 235.693 404.883 236.67ZM394.092 244.043C398.291 247.705 401.318 251.172 403.271 254.541C405.811 258.984 408.154 266.65 407.324 267.871C407.129 268.164 405.957 268.945 404.688 269.678C402.393 270.996 402.344 270.996 402.344 269.971C402.344 267.969 400.781 262.939 399.121 259.375C397.803 256.689 396.289 254.639 392.725 250.928C390.137 248.242 387.402 245.703 386.621 245.215C385.889 244.775 385.254 244.287 385.254 244.141C385.303 243.701 389.355 241.309 390.137 241.26C390.527 241.211 392.334 242.48 394.092 244.043ZM387.891 253.174C392.139 257.324 396.973 265.039 396.973 267.676C396.973 268.213 394.092 270.264 388.818 273.584C370.996 284.619 354.639 294.775 352.93 295.801L351.172 296.924L350.391 294.336C350 292.92 349.316 290.43 348.828 288.77C348.047 285.84 347.949 285.791 343.213 282.275C340.527 280.322 338.379 278.613 338.379 278.418C338.379 278.076 339.404 277.441 358.887 265.381C365.723 261.133 374.072 255.957 377.441 253.857C380.811 251.758 383.789 250 384.131 250C384.424 250 386.133 251.416 387.891 253.174ZM169.629 253.076C170.068 254.199 170.41 255.518 170.41 255.957C170.41 256.934 165.332 261.572 157.959 267.334C154.98 269.629 150.293 273.34 147.51 275.537C139.99 281.494 139.502 281.836 139.062 281.104C138.867 280.811 138.672 280.127 138.672 279.639C138.672 278.418 144.824 272.705 151.807 267.529C155.811 264.551 158.887 261.719 162.354 257.812C165.039 254.785 167.432 252.002 167.725 251.66C168.457 250.586 168.75 250.83 169.629 253.076ZM171.631 260.498C172.9 262.354 172.949 262.402 171.973 263.135C171.436 263.574 168.018 266.309 164.307 269.287C160.596 272.217 154.199 277.441 150.146 280.811C142.578 287.061 139.99 289.062 139.453 289.062C139.307 289.062 139.16 287.793 139.16 286.23V283.447L145.85 278.32C158.154 268.896 166.113 262.451 168.848 259.717C169.58 258.984 170.215 258.447 170.264 258.496C170.312 258.545 170.947 259.424 171.631 260.498ZM108.643 269.043C112.891 271.729 119.531 275.781 122.021 277.295C123.193 277.979 126.123 279.834 128.467 281.348C132.568 284.033 132.812 284.229 132.812 285.889V287.598L131.494 286.768C128.223 284.717 116.895 276.758 111.084 272.51C107.568 269.922 103.809 267.188 102.637 266.406C97.4609 262.891 101.758 264.795 108.643 269.043ZM175 276.123L176.807 278.857L173.926 281.982C171.973 284.131 170.215 286.816 168.506 290.186C164.99 297.363 164.014 301.416 163.721 310.303L163.428 317.627L161.084 319.482L158.74 321.338L156.445 319.58C153.809 317.529 152.197 316.699 150.146 316.211C148.096 315.723 147.461 315.039 147.461 313.477C147.461 312.744 146.826 310.596 146.045 308.789C145.264 306.934 144.238 303.662 143.799 301.562C142.969 297.803 142.969 297.705 143.896 296.924C156.836 286.426 162.354 281.934 166.992 278.125C170.068 275.586 172.754 273.486 172.9 273.486C173.047 273.438 174.023 274.658 175 276.123ZM220.557 278.857C222.803 279.688 223.975 281.152 225.195 284.57C226.514 288.379 228.125 290.234 230.762 290.967C233.252 291.65 265.674 291.699 268.164 291.016C270.312 290.381 272.51 287.939 273.73 284.717C275.83 279.102 277.49 278.32 287.158 278.32C291.309 278.32 295.459 278.613 297.754 279.053C302.539 280.029 310.4 283.838 313.916 286.963C317.334 289.99 321.045 295.605 322.412 300C323.438 303.369 323.486 304.004 323.486 326.66C323.486 349.414 323.486 349.902 322.363 353.369C319.238 363.33 311.279 369.189 301.758 368.506C297.461 368.213 294.727 367.09 291.846 364.307C289.16 361.768 287.842 358.887 285.938 351.221C283.74 342.432 282.617 339.502 280.029 335.938C277.344 332.324 274.121 329.932 270.166 328.613C267.285 327.637 266.309 327.588 248.438 327.734L229.736 327.881L226.562 329.443C219.531 332.91 215.967 338.428 213.135 350.244C212.207 354.199 210.889 358.496 210.254 359.766C208.691 362.842 205.811 365.723 202.832 367.188C200.781 368.213 199.756 368.408 195.557 368.408C191.26 368.408 190.332 368.262 187.891 367.09C182.666 364.648 178.418 359.717 176.172 353.516C175.049 350.342 175.049 350.244 175.049 326.416V302.49L176.318 299.219C178.271 294.189 180.566 290.723 184.229 287.354C188.916 283.008 196.191 279.59 202.881 278.662C206.104 278.223 219.238 278.369 220.557 278.857ZM339.746 286.279C343.311 289.062 343.945 290.186 344.727 294.434C345.02 296.191 345.361 298.193 345.508 298.926C345.752 300.195 345.703 300.195 342.676 300.488C340.967 300.684 338.184 300.83 336.475 300.928L333.35 301.025L332.764 298.584C332.471 297.217 331.836 295.459 331.396 294.58C330.273 292.432 330.322 292.139 332.568 287.158C334.912 282.08 334.521 282.129 339.746 286.279ZM113.818 288.281C117.48 288.672 121.387 290.088 125 292.334L127.979 294.287L126.123 294.824C119.287 296.826 113.525 296.582 108.496 294.092C106.152 292.92 102.539 289.355 103.125 288.77C103.467 288.428 108.984 287.744 110.107 287.891C110.645 287.939 112.305 288.135 113.818 288.281ZM392.871 296.387C396.729 298.291 397.559 302.832 394.482 305.371C389.355 309.717 382.422 304.248 385.498 298.34C385.938 297.51 386.328 296.875 386.377 296.875C386.426 296.875 387.354 296.533 388.428 296.143C390.869 295.264 390.479 295.264 392.871 296.387ZM129.199 300.732C130.518 300.977 132.275 301.465 133.057 301.758L134.521 302.344L132.08 304.541C128.467 307.812 126.074 308.74 121.094 308.789C117.578 308.789 116.504 308.594 114.111 307.471C112.402 306.689 111.328 305.908 111.426 305.566C111.572 305.225 113.281 304.102 115.283 303.076C120.117 300.586 124.512 299.854 129.199 300.732ZM139.648 303.076C139.99 303.857 140.381 305.908 140.479 307.666C140.869 312.451 139.844 315.088 136.182 318.604C134.57 320.166 133.105 321.24 132.91 321.094C132.715 320.898 132.568 318.262 132.568 315.283C132.568 311.328 132.764 309.473 133.301 308.496C134.18 306.934 138.281 301.807 138.721 301.758C138.867 301.758 139.307 302.344 139.648 303.076ZM380.127 309.229C382.129 311.23 382.568 312.744 381.836 315.332C380.957 318.652 377.637 320.312 374.561 319.043C372.168 318.066 371.191 317.041 370.654 315.039C369.971 312.695 370.508 310.742 372.168 309.033C373.389 307.861 374.023 307.617 376.074 307.617C378.174 307.617 378.711 307.812 380.127 309.229ZM363.77 310.303C363.525 311.377 363.281 312.891 363.281 313.721V315.186H358.74C354.492 315.234 354.053 315.332 350.098 317.285C347.803 318.408 345.264 319.727 344.385 320.215C343.018 321.045 342.432 321.094 339.99 320.654C337.549 320.264 335.547 318.994 335.449 317.871C335.449 317.725 337.451 317.676 339.844 317.773C344.531 317.969 348.096 317.383 351.025 316.064C353.32 314.99 361.23 310.352 362.793 309.131C363.477 308.594 364.062 308.203 364.111 308.252C364.16 308.35 364.014 309.229 363.77 310.303ZM391.602 315.43C394.336 318.164 392.48 323.486 388.379 324.512C387.744 324.658 386.426 324.609 385.449 324.414L383.74 323.975L385.449 321.729C386.475 320.459 387.451 318.408 387.793 316.992C388.33 314.844 388.574 314.453 389.502 314.453C390.137 314.453 391.064 314.893 391.602 315.43ZM104.785 317.139C106.445 319.678 103.271 322.559 101.074 320.557C100 319.58 99.8047 317.383 100.684 316.504C101.709 315.479 103.906 315.82 104.785 317.139ZM363.867 324.023C364.307 324.805 365.137 327.588 365.674 330.225C366.748 335.547 368.75 340.283 370.996 342.627C372.656 344.385 378.516 348.291 381.055 349.365L382.715 350.098L381.348 353.662C380.566 355.664 379.688 358.643 379.346 360.303L378.76 363.281H376.514C370.801 363.33 364.746 365.771 361.377 369.385C359.473 371.436 355.469 378.906 355.469 380.371C355.469 380.811 354.932 380.859 353.662 380.615C352.637 380.42 350.049 380.127 347.949 379.932L344.092 379.639L343.311 376.709C342.236 372.852 339.648 368.066 337.451 365.918C336.475 364.99 334.229 363.477 332.471 362.598L329.248 360.986L330.615 357.959C332.959 352.783 333.594 348.486 333.398 339.111C333.301 331.982 333.35 330.811 333.984 330.957C336.475 331.543 341.65 331.592 344.531 331.104C348.682 330.371 351.465 329.102 357.422 325.293C359.961 323.633 362.256 322.363 362.549 322.412C362.793 322.51 363.379 323.242 363.867 324.023ZM150.83 325.098C151.123 326.123 151.514 327.686 151.66 328.516C151.904 329.785 152.393 330.273 154.199 331.055C157.031 332.324 157.178 332.324 160.059 330.371L162.549 328.711L163.77 330.029L165.039 331.348V340.82C165.039 348.047 165.234 350.928 165.82 353.076C166.455 355.322 166.504 356.25 166.064 357.471C165.234 359.863 165.381 360.693 167.236 363.428C168.164 364.795 168.945 366.309 168.945 366.748C168.945 367.188 167.578 369.043 165.869 370.898L162.793 374.17L159.717 372.461L156.641 370.703L154.346 371.68C152.1 372.656 152.002 372.754 151.172 376.074L150.293 379.443L145.361 379.297L140.43 379.15L139.404 375.83C138.477 372.705 138.281 372.461 136.328 371.582L134.229 370.654L131.152 372.168L128.076 373.682L125.83 371.24C124.609 369.922 123.145 368.311 122.607 367.578L121.631 366.357L123.291 363.721C124.219 362.256 125 360.596 125 360.059C125 358.301 123.438 356.934 120.361 356.006L117.432 355.078L117.285 350.928L117.139 346.777L118.506 346.484C123.096 345.361 123.633 345.117 124.512 343.604L125.439 342.09L123.633 338.77L121.875 335.449L125.049 332.227L128.271 329.004L131.25 330.615L134.277 332.275L136.572 331.055C138.721 329.932 138.916 329.639 139.502 327.002C139.844 325.391 140.234 323.926 140.43 323.682C140.576 323.438 142.871 323.242 145.508 323.242H150.342L150.83 325.098ZM266.65 339.746C271.436 342.822 275.098 348.242 276.318 353.906C276.66 355.566 276.855 363.184 276.855 374.902V393.311L272.07 395.947C269.482 397.412 263.477 400.83 258.74 403.613C254.004 406.396 249.951 408.691 249.756 408.691C249.414 408.691 232.178 398.926 225.488 394.922L222.168 392.969V374.756C222.168 364.453 222.363 355.42 222.656 353.955C223.779 347.998 227.393 342.627 232.08 339.893L234.619 338.379H249.561H264.453L266.65 339.746ZM201.66 382.129C205.664 382.861 207.52 384.229 207.52 386.523C207.52 387.988 205.908 389.648 204.492 389.648C203.027 389.648 192.822 386.133 191.211 385.059C189.746 384.131 189.6 382.764 190.723 381.641C191.602 380.762 194.971 380.908 201.66 382.129ZM308.154 381.348C309.277 381.982 309.424 384.375 308.35 385.254C307.568 385.889 296.143 389.648 294.971 389.648C293.75 389.648 291.992 387.598 291.992 386.182C291.992 383.789 293.311 382.861 297.852 382.08C305.664 380.762 306.885 380.713 308.154 381.348Z" fill="black" fill-opacity="0.31"/>
</svg>
