<svg id="visual" viewBox="0 0 900 600" width="900" height="600" xmlns="http://www.w3.org/2000/svg" xmlns:xlink="http://www.w3.org/1999/xlink" version="1.1"><g stroke-width="1" stroke-linejoin="bevel"><path d="M524.3 259L615.9 332L613.9 242Z" fill="#ff8f34" stroke="#ff8f34"></path><path d="M524.3 259L496.3 374L615.9 332Z" fill="#ff7717" stroke="#ff7717"></path><path d="M793.4 254L662.9 110L613.9 242Z" fill="#ff8629" stroke="#ff8629"></path><path d="M613.9 242L523.3 95L524.3 259Z" fill="#ff6c08" stroke="#ff6c08"></path><path d="M662.9 110L523.3 95L613.9 242Z" fill="#ff6c08" stroke="#ff6c08"></path><path d="M524.3 259L375.7 351L496.3 374Z" fill="#ff6c08" stroke="#ff6c08"></path><path d="M658.9 503L762.4 378L615.9 332Z" fill="#ff7c1d" stroke="#ff7c1d"></path><path d="M615.9 332L793.4 254L613.9 242Z" fill="#ff7c1d" stroke="#ff7c1d"></path><path d="M366.7 231L375.7 351L524.3 259Z" fill="#ff8b2e" stroke="#ff8b2e"></path><path d="M523.3 95L366.7 231L524.3 259Z" fill="#ff7110" stroke="#ff7110"></path><path d="M762.4 378L793.4 254L615.9 332Z" fill="#ff9439" stroke="#ff9439"></path><path d="M375.7 351L486.3 497L496.3 374Z" fill="#ff7c1d" stroke="#ff7c1d"></path><path d="M496.3 374L658.9 503L615.9 332Z" fill="#ff7110" stroke="#ff7110"></path><path d="M486.3 497L658.9 503L496.3 374Z" fill="#ff983f" stroke="#ff983f"></path><path d="M793.4 254L796.4 144L662.9 110Z" fill="#ff7c1d" stroke="#ff7c1d"></path><path d="M523.3 95L363.7 129L366.7 231Z" fill="#ff8f34" stroke="#ff8f34"></path><path d="M658.9 503L785.4 454L762.4 378Z" fill="#ff9439" stroke="#ff9439"></path><path d="M900 370L900 242L793.4 254Z" fill="#ff8629" stroke="#ff8629"></path><path d="M663.9 0L532.3 0L523.3 95Z" fill="#ff7c1d" stroke="#ff7c1d"></path><path d="M523.3 95L378.7 0L363.7 129Z" fill="#ff7c1d" stroke="#ff7c1d"></path><path d="M663.9 0L523.3 95L662.9 110Z" fill="#ff7110" stroke="#ff7110"></path><path d="M363.7 129L285.1 229L366.7 231Z" fill="#ff8f34" stroke="#ff8f34"></path><path d="M366.7 231L285.1 229L375.7 351Z" fill="#ff9439" stroke="#ff9439"></path><path d="M798.4 0L663.9 0L662.9 110Z" fill="#ff7717" stroke="#ff7717"></path><path d="M265.1 375L357.7 496L375.7 351Z" fill="#ff7c1d" stroke="#ff7c1d"></path><path d="M375.7 351L357.7 496L486.3 497Z" fill="#ff6600" stroke="#ff6600"></path><path d="M510.3 600L634.9 600L658.9 503Z" fill="#ff9439" stroke="#ff9439"></path><path d="M510.3 600L658.9 503L486.3 497Z" fill="#ff6600" stroke="#ff6600"></path><path d="M658.9 503L766.4 600L785.4 454Z" fill="#ff983f" stroke="#ff983f"></path><path d="M383.7 600L510.3 600L486.3 497Z" fill="#ff983f" stroke="#ff983f"></path><path d="M285.1 229L265.1 375L375.7 351Z" fill="#ff7110" stroke="#ff7110"></path><path d="M900 370L793.4 254L762.4 378Z" fill="#ff8b2e" stroke="#ff8b2e"></path><path d="M793.4 254L900 242L796.4 144Z" fill="#ff8f34" stroke="#ff8f34"></path><path d="M796.4 144L798.4 0L662.9 110Z" fill="#ff7717" stroke="#ff7717"></path><path d="M785.4 454L900 370L762.4 378Z" fill="#ff7110" stroke="#ff7110"></path><path d="M900 477L900 370L785.4 454Z" fill="#ff6c08" stroke="#ff6c08"></path><path d="M532.3 0L378.7 0L523.3 95Z" fill="#ff8f34" stroke="#ff8f34"></path><path d="M363.7 129L263.1 131L285.1 229Z" fill="#ff7110" stroke="#ff7110"></path><path d="M271.1 0L263.1 131L363.7 129Z" fill="#ff983f" stroke="#ff983f"></path><path d="M102.6 248L119.6 386L265.1 375Z" fill="#ff7110" stroke="#ff7110"></path><path d="M265.1 375L271.1 479L357.7 496Z" fill="#ff8b2e" stroke="#ff8b2e"></path><path d="M357.7 496L383.7 600L486.3 497Z" fill="#ff6600" stroke="#ff6600"></path><path d="M900 94L798.4 0L796.4 144Z" fill="#ff7717" stroke="#ff7717"></path><path d="M634.9 600L766.4 600L658.9 503Z" fill="#ff6c08" stroke="#ff6c08"></path><path d="M233.1 600L383.7 600L357.7 496Z" fill="#ff7717" stroke="#ff7717"></path><path d="M766.4 600L900 477L785.4 454Z" fill="#ff983f" stroke="#ff983f"></path><path d="M900 242L900 94L796.4 144Z" fill="#ff983f" stroke="#ff983f"></path><path d="M378.7 0L271.1 0L363.7 129Z" fill="#ff8123" stroke="#ff8123"></path><path d="M900 94L900 0L798.4 0Z" fill="#ff7717" stroke="#ff7717"></path><path d="M766.4 600L900 600L900 477Z" fill="#ff8b2e" stroke="#ff8b2e"></path><path d="M152.6 600L233.1 600L271.1 479Z" fill="#ff9439" stroke="#ff9439"></path><path d="M271.1 479L233.1 600L357.7 496Z" fill="#ff7717" stroke="#ff7717"></path><path d="M117.6 468L271.1 479L265.1 375Z" fill="#ff983f" stroke="#ff983f"></path><path d="M265.1 375L285.1 229L102.6 248Z" fill="#ff983f" stroke="#ff983f"></path><path d="M102.6 248L285.1 229L263.1 131Z" fill="#ff8629" stroke="#ff8629"></path><path d="M101.6 93L102.6 248L263.1 131Z" fill="#ff7717" stroke="#ff7717"></path><path d="M0 503L117.6 468L119.6 386Z" fill="#ff7c1d" stroke="#ff7c1d"></path><path d="M119.6 386L117.6 468L265.1 375Z" fill="#ff983f" stroke="#ff983f"></path><path d="M271.1 0L101.6 93L263.1 131Z" fill="#ff983f" stroke="#ff983f"></path><path d="M117.6 468L152.6 600L271.1 479Z" fill="#ff7717" stroke="#ff7717"></path><path d="M271.1 0L106.6 0L101.6 93Z" fill="#ff8629" stroke="#ff8629"></path><path d="M102.6 248L0 346L119.6 386Z" fill="#ff7717" stroke="#ff7717"></path><path d="M117.6 468L0 503L152.6 600Z" fill="#ff7110" stroke="#ff7110"></path><path d="M0 228L0 346L102.6 248Z" fill="#ff983f" stroke="#ff983f"></path><path d="M0 228L102.6 248L0 135Z" fill="#ff8629" stroke="#ff8629"></path><path d="M0 135L102.6 248L101.6 93Z" fill="#ff983f" stroke="#ff983f"></path><path d="M0 0L0 135L101.6 93Z" fill="#ff7717" stroke="#ff7717"></path><path d="M0 346L0 503L119.6 386Z" fill="#ff6c08" stroke="#ff6c08"></path><path d="M106.6 0L0 0L101.6 93Z" fill="#ff6600" stroke="#ff6600"></path><path d="M0 503L0 600L152.6 600Z" fill="#ff8b2e" stroke="#ff8b2e"></path></g></svg>