<svg id="visual" viewBox="0 0 900 600" width="900" height="600" xmlns="http://www.w3.org/2000/svg" xmlns:xlink="http://www.w3.org/1999/xlink" version="1.1"><path d="M638 600L650 550C662 500 686 400 689 300C692 200 674 100 665 50L656 0L900 0L900 50C900 100 900 200 900 300C900 400 900 500 900 550L900 600Z" fill="#ff983f"></path><path d="M359 600L368 550C377 500 395 400 398 300C401 200 389 100 383 50L377 0L657 0L666 50C675 100 693 200 690 300C687 400 663 500 651 550L639 600Z" fill="#ff8123"></path><path d="M0 600L0 550C0 500 0 400 0 300C0 200 0 100 0 50L0 0L378 0L384 50C390 100 402 200 399 300C396 400 378 500 369 550L360 600Z" fill="#ff6600"></path></svg>